<svg width="128" height="128" viewBox="0 0 128 128" fill="none" xmlns="http://www.w3.org/2000/svg">
<rect x="0.5" y="0.5" width="127" height="127" rx="19.5" fill="#37003C"/>
<path d="M24.835 87V41.56H55.811V51.416H36.163V60.312H52.291V69.464H36.163V87H24.835ZM105.564 75.352C105.564 77.9973 104.838 80.1947 103.388 81.944C101.98 83.6507 100.081 84.9307 97.6915 85.784C95.3022 86.5947 92.6568 87 89.7555 87H67.5475V41.56H93.2755C95.4088 41.56 97.2435 42.136 98.7795 43.288C100.358 44.3973 101.553 45.848 102.364 47.64C103.217 49.432 103.644 51.288 103.644 53.208C103.644 55.2987 103.089 57.3253 101.98 59.288C100.87 61.2507 99.2488 62.7227 97.1155 63.704C99.7182 64.472 101.766 65.8373 103.26 67.8C104.796 69.72 105.564 72.2373 105.564 75.352ZM94.1075 73.048C94.1075 72.152 93.9368 71.3627 93.5955 70.68C93.2542 69.9973 92.7848 69.464 92.1875 69.08C91.6328 68.6533 90.9715 68.44 90.2035 68.44H78.8755V77.464H89.7555C90.5662 77.464 91.2915 77.2933 91.9315 76.952C92.6142 76.568 93.1475 76.056 93.5315 75.416C93.9155 74.7333 94.1075 73.944 94.1075 73.048ZM78.8755 51.16V59.608H88.4115C89.0942 59.608 89.7342 59.48 90.3315 59.224C90.9715 58.9253 91.4835 58.4773 91.8675 57.88C92.2515 57.24 92.4435 56.408 92.4435 55.384C92.4435 54.4027 92.2728 53.6133 91.9315 53.016C91.6328 52.4187 91.2062 51.9707 90.6515 51.672C90.0968 51.3307 89.4782 51.16 88.7955 51.16H78.8755Z" fill="white"/>
<rect x="0.5" y="0.5" width="127" height="127" rx="19.5" stroke="black"/>
</svg>
